<?xml version="1.0" encoding="UTF-8"?>
<svg width="300" height="60" version="1.1" viewBox="0 0 75 15"
  xmlns="http://www.w3.org/2000/svg"
  xmlns:cc="http://creativecommons.org/ns#"
  xmlns:dc="http://purl.org/dc/elements/1.1/"
  xmlns:rdf="http://www.w3.org/1999/02/22-rdf-syntax-ns#">
  <metadata>
    <rdf:RDF>
      <cc:Work rdf:about="">
        <dc:format>image/svg+xml</dc:format>
        <dc:type rdf:resource="http://purl.org/dc/dcmitype/StillImage"/>
      </cc:Work>
    </rdf:RDF>
  </metadata>
  <g transform="translate(-11.618 -25.342)">
    <text transform="scale(.26458)" fill="#000000" font-family="sans-serif" font-size="40px" style="line-height:1.25;shape-inside:url(#rect67405);white-space:pre" xml:space="preserve"/>
    <text x="66.635284" y="78.263641" fill="#000000" font-family="sans-serif" font-size="10.583px" stroke-width=".26458" style="line-height:1.25" xml:space="preserve">
      <tspan x="66.635284" y="78.263641" stroke-width=".26458"/>
    </text>
    <g transform="matrix(1.0795 0 0 1.1339 -.9161 -3.3922)">
      <g transform="matrix(3.546 0 0 3.546 -27.459 -86.45)" stroke-width=".1464">
        <g fill="none" stroke="#049481" aria-label="LM">
          <path d="m11.091 31.599h0.72696v2.9468h2.0846v0.63752h-2.8115z"/>
          <path d="m14.609 31.599h0.72696l1.3026 1.3071 1.3026-1.3071h0.72696v3.5843h-0.72696v-2.5776l-1.3026 1.2544-1.3026-1.2544v2.5776h-0.72696z"/>
        </g>
      </g>
      <g fill="#049481" stroke-width=".36392" aria-label="ERO">
        <path d="m57.114 38.461h-4.6046q-2.1927 0-3.088-0.74916-0.87707-0.76744-0.87707-2.686v-9.5747h8.5697v2.2658h-6.0299v3.0515h4.2209l-0.18272 2.2658h-4.0382v1.809q0 0.76744 0.34717 1.0598 0.34717 0.29236 1.2608 0.29236h4.4219z"/>
        <path d="m69.448 38.461h-2.9418l-2.5398-4.8239h-1.8272v4.8239h-2.5398v-10.214q0-1.4618 0.67608-2.1196 0.67608-0.67608 2.2658-0.67608h2.1561q1.9369 0 3.0697 1.1877 1.1512 1.1694 1.1512 2.9784 0 1.3156-0.69435 2.284-0.67608 0.95016-1.6811 1.3156zm-4.9152-6.9435q0.80398 0 1.3156-0.54817 0.5299-0.56644 0.5299-1.3887 0-0.84052-0.51162-1.3522-0.49335-0.51162-1.3339-0.51162h-1.2608q-1.1329 0-1.1329 1.1512v2.6495z"/>
        <path d="m81.088 31.353v0.9867q0 3.2707-1.2425 4.7508-1.2242 1.4801-3.9468 1.4801t-3.9468-1.4801q-1.206-1.4801-1.206-4.8056v-0.95016q0-3.0332 1.2242-4.5133 1.2425-1.4801 3.9103-1.4801 2.686 0 3.9468 1.4983 1.2608 1.4983 1.2608 4.5133zm-2.5398 0.93189v-0.67608q0-1.7541-0.43854-2.7957-0.51162-1.206-2.1927-1.206-1.6993 0-2.2109 1.206-0.42026 0.9867-0.42026 2.7957v0.67608q0 2.3571 0.6578 3.1794 0.25581 0.34717 0.74916 0.60299 0.51162 0.23754 1.206 0.23754 0.71262 0 1.206-0.23754t0.76744-0.58471q0.27408-0.34717 0.42026-0.91362 0.25581-0.89534 0.25581-2.284z"/>
      </g>
      <a transform="matrix(.83333 0 0 .83333 -2.5585 -23.591)" fill="#049481">
        <path d="m49.867 58.72h0.79375l9.4185 15.875h-3.7035l-1.4288-2.6458h-5.08zm3.9158 11.112-3.9158-7.1438v7.1438z" fill="#049481" style="inline-size:7.18472;white-space:pre"/>
      </a>
    </g>
  </g>
</svg>
