<svg width="300" height="60" viewBox="0 0 75 15" xmlns="http://www.w3.org/2000/svg"><text x="66.635" y="78.264" font-family="sans-serif" font-size="10.583" stroke-width=".265" style="line-height:1.25" xml:space="preserve" transform="translate(-11.618 -25.342)">
      
    </text><g transform="matrix(1.0795 0 0 1.1339 -12.534 -28.734)"><g fill="none" stroke="#049481" aria-label="LM" stroke-width=".146"><path d="M11.87 25.6h2.577v10.45h7.392v2.26h-9.97zM24.345 25.6h2.577l4.62 4.635L36.16 25.6h2.578v12.71H36.16v-9.14l-4.619 4.448-4.619-4.448v9.14h-2.577z" stroke-width=".517716"/></g><g fill="#049481" stroke-width=".364" aria-label="ERO"><path d="M57.114 38.461h-4.605q-2.192 0-3.088-.75-.877-.767-.877-2.685V25.45h8.57v2.266h-6.03v3.051h4.221l-.183 2.266h-4.038v1.81q0 .767.347 1.059.347.292 1.261.292h4.422zM69.448 38.461h-2.942l-2.54-4.824H62.14v4.824H59.6V28.247q0-1.462.676-2.12.677-.676 2.266-.676h2.156q1.937 0 3.07 1.188 1.151 1.17 1.151 2.978 0 1.316-.694 2.284-.676.95-1.681 1.316zm-4.915-6.944q.804 0 1.315-.548.53-.566.53-1.388 0-.84-.511-1.353-.494-.511-1.334-.511h-1.261q-1.133 0-1.133 1.151v2.65zM81.088 31.353v.987q0 3.27-1.242 4.75-1.225 1.48-3.947 1.48t-3.947-1.48q-1.206-1.48-1.206-4.805v-.95q0-3.033 1.224-4.514 1.243-1.48 3.91-1.48 2.686 0 3.947 1.499 1.261 1.498 1.261 4.513zm-2.54.932v-.676q0-1.754-.438-2.796-.512-1.206-2.193-1.206-1.7 0-2.21 1.206-.421.987-.421 2.796v.676q0 2.357.658 3.18.255.346.749.602.511.238 1.206.238.712 0 1.206-.238t.767-.584q.274-.348.42-.914.256-.895.256-2.284z"/></g><a transform="translate(-2.558 -23.591) scale(.83333)" fill="#049481"><path d="M49.867 58.72h.794l9.418 15.875h-3.703l-1.429-2.646h-5.08zm3.916 11.112-3.916-7.144v7.144z" style="inline-size:7.18472;white-space:pre"/></a></g></svg>